<svg width="100%" viewBox="0 0 900 200" xmlns="http://www.w3.org/2000/svg">
  <defs>
    <linearGradient id="bg" x1="0%" y1="0%" x2="100%" y2="100%">
      <stop offset="0%" style="stop-color:#0a0a0a"/>
      <stop offset="50%" style="stop-color:#111827"/>
      <stop offset="100%" style="stop-color:#0a0a0a"/>
    </linearGradient>
    <linearGradient id="accent" x1="0%" y1="0%" x2="100%" y2="0%">
      <stop offset="0%" style="stop-color:#3b82f6"/>
      <stop offset="100%" style="stop-color:#8b5cf6"/>
    </linearGradient>
  </defs>
  <rect width="900" height="200" fill="url(#bg)" rx="8"/>
  <g opacity="0.04">
    <line x1="60" y1="0" x2="60" y2="200" stroke="#fff" stroke-width="0.5"/>
    <line x1="120" y1="0" x2="120" y2="200" stroke="#fff" stroke-width="0.5"/>
    <line x1="180" y1="0" x2="180" y2="200" stroke="#fff" stroke-width="0.5"/>
    <line x1="240" y1="0" x2="240" y2="200" stroke="#fff" stroke-width="0.5"/>
    <line x1="300" y1="0" x2="300" y2="200" stroke="#fff" stroke-width="0.5"/>
    <line x1="360" y1="0" x2="360" y2="200" stroke="#fff" stroke-width="0.5"/>
    <line x1="420" y1="0" x2="420" y2="200" stroke="#fff" stroke-width="0.5"/>
    <line x1="480" y1="0" x2="480" y2="200" stroke="#fff" stroke-width="0.5"/>
    <line x1="540" y1="0" x2="540" y2="200" stroke="#fff" stroke-width="0.5"/>
    <line x1="600" y1="0" x2="600" y2="200" stroke="#fff" stroke-width="0.5"/>
    <line x1="660" y1="0" x2="660" y2="200" stroke="#fff" stroke-width="0.5"/>
    <line x1="720" y1="0" x2="720" y2="200" stroke="#fff" stroke-width="0.5"/>
    <line x1="780" y1="0" x2="780" y2="200" stroke="#fff" stroke-width="0.5"/>
    <line x1="840" y1="0" x2="840" y2="200" stroke="#fff" stroke-width="0.5"/>
    <line x1="0" y1="40" x2="900" y2="40" stroke="#fff" stroke-width="0.5"/>
    <line x1="0" y1="80" x2="900" y2="80" stroke="#fff" stroke-width="0.5"/>
    <line x1="0" y1="120" x2="900" y2="120" stroke="#fff" stroke-width="0.5"/>
    <line x1="0" y1="160" x2="900" y2="160" stroke="#fff" stroke-width="0.5"/>
  </g>
  <rect x="0" y="196" width="900" height="4" fill="url(#accent)" opacity="0.8"/>
  <circle cx="780" cy="40" r="2" fill="#3b82f6" opacity="0.3"/>
  <circle cx="800" cy="55" r="1.5" fill="#8b5cf6" opacity="0.25"/>
  <circle cx="820" cy="35" r="1" fill="#3b82f6" opacity="0.2"/>
  <circle cx="760" cy="60" r="1.5" fill="#8b5cf6" opacity="0.15"/>
  <circle cx="840" cy="50" r="2" fill="#3b82f6" opacity="0.2"/>
  <text x="60" y="85" font-family="system-ui, -apple-system, sans-serif" font-size="42" font-weight="700" fill="#e2e8f0" letter-spacing="-1">Yann</text>
  <text x="60" y="120" font-family="system-ui, -apple-system, sans-serif" font-size="16" fill="#94a3b8" letter-spacing="0.5">18yo founder · building AI-powered tools for businesses</text>
  <text x="60" y="155" font-family="monospace" font-size="13" fill="#3b82f6" opacity="0.7" letter-spacing="1">PYTHON · MCP · LLM · AUTOMATION</text>
  <g transform="translate(720, 80)" opacity="0.12">
    <text font-family="monospace" font-size="11" fill="#8b5cf6">
      <tspan x="0" dy="0">async def build():</tspan>
      <tspan x="0" dy="16">    while True:</tspan>
      <tspan x="0" dy="16">        ship()</tspan>
      <tspan x="0" dy="16">        iterate()</tspan>
    </text>
  </g>
</svg>
